<svg xmlns="http://www.w3.org/2000/svg" fill="none" viewBox="0 0 17 17">
  <mask id="a" width="17" height="17" x="0" y="0" maskUnits="userSpaceOnUse" style="mask-type:alpha">
    <path fill="#D9D9D9" d="M0 0h16v16H0z" transform="matrix(-1 0 0 1 16.5 .5)"/>
  </mask>
  <g mask="url(#a)">
    <path fill="#6BCD75" d="M10.5 12.5c.3667 0 .6806-.1306.9417-.3917s.3916-.575.3916-.9416V3.16666c0-.36667-.1305-.68055-.3916-.94167-.2611-.26111-.575-.39166-.9417-.39166h-6c-.36667 0-.68056.13055-.94167.39166-.26111.26112-.39166.575-.39166.94167v8.00004c0 .3666.13055.6805.39166.9416s.575.3917.94167.3917h6Zm0-1.3333h-6V3.16666h6v8.00004Zm2.6667 4c.3666 0 .6805-.1306.9416-.3917s.3917-.575.3917-.9417V4.49999h-1.3333v9.33331H5.83333v1.3334h7.33337Z"/>
  </g>
</svg>
