<svg xmlns="http://www.w3.org/2000/svg" fill="none" viewBox="0 0 16 17">
  <mask id="a" width="16" height="17" x="0" y="0" maskUnits="userSpaceOnUse" style="mask-type:alpha">
    <path fill="#D9D9D9" d="M0 0h16v16H0z" transform="matrix(-1 0 0 1 16 .5)"/>
  </mask>
  <g mask="url(#a)">
    <path fill="#fff" d="M10.6666 9.16667H5.33331V7.83334h5.33329v1.33333Zm0 2.00003H5.33331V9.83334h5.33329v1.33336Zm0 2H7.33331v-1.3334h3.33329v1.3334Zm1.3334 2c.3666 0 .6805-.1306.9416-.3917.2612-.2611.3917-.575.3917-.9417V3.16667c0-.36667-.1305-.68056-.3917-.94167-.2611-.26111-.575-.39166-.9416-.39166H6.66665l-4 4v7.99996c0 .3667.13055.6806.39166.9417s.575.3917.94167.3917H12ZM7.33331 6.5V3.16667H12V13.8333H3.99998V6.5h3.33333Z"/>
  </g>
</svg>
